<svg width="19" height="16" viewBox="0 0 19 16" fill="none" xmlns="http://www.w3.org/2000/svg">
<path fill-rule="evenodd" clip-rule="evenodd" d="M3.19641 0.955845C3.4416 0.732941 3.82107 0.751011 4.04397 0.996205L16.044 14.1962C16.2669 14.4414 16.2488 14.8209 16.0036 15.0438C15.7584 15.2667 15.3789 15.2486 15.156 15.0034L3.15604 1.80341C2.93314 1.55822 2.95121 1.17875 3.19641 0.955845Z" fill="#A0ADBA"/>
<path fill-rule="evenodd" clip-rule="evenodd" d="M8.02651 5.37625C8.24939 5.62146 8.23129 6.00093 7.98607 6.22381C7.62762 6.54962 7.37614 6.97628 7.2647 7.44769C7.15326 7.9191 7.18708 8.41319 7.36171 8.86502C7.53634 9.31685 7.84361 9.70526 8.24311 9.97919C8.64262 10.2531 9.11567 10.3998 9.60007 10.3998L9.60229 10.3998C10.1981 10.4021 10.7729 10.1799 11.2122 9.77739C11.4566 9.55355 11.8361 9.57017 12.0599 9.81451C12.2838 10.0589 12.2671 10.4384 12.0228 10.6622C11.3613 11.2682 10.496 11.6029 9.59892 11.5998C8.87267 11.5995 8.16349 11.3796 7.56451 10.9689C6.96525 10.558 6.50435 9.97537 6.2424 9.29763C5.98046 8.61988 5.92973 7.87874 6.09689 7.17162C6.26404 6.46451 6.64126 5.82453 7.17895 5.33581C7.42416 5.11293 7.80363 5.13103 8.02651 5.37625Z" fill="#A0ADBA"/>
<path fill-rule="evenodd" clip-rule="evenodd" d="M6.08561 3.27438C6.23496 3.57019 6.11624 3.93106 5.82044 4.08041C4.39431 4.80047 3.37236 5.84354 2.70388 6.71648C2.37063 7.15164 2.12858 7.54019 1.97104 7.81742C1.93251 7.88521 1.89911 7.94623 1.87072 7.99952C1.94131 8.13176 2.04273 8.31142 2.1765 8.52387C2.47713 9.00134 2.93769 9.63896 3.57427 10.2755C4.84398 11.5452 6.79956 12.7998 9.60001 12.7998H9.6049C10.9154 12.8105 12.2096 12.5085 13.3801 11.919C13.676 11.7699 14.0368 11.8889 14.1859 12.1849C14.3349 12.4808 14.2159 12.8416 13.9199 12.9907C12.5798 13.6657 11.098 14.0117 9.59751 13.9998C6.39929 13.9991 4.15567 12.554 2.72574 11.1241C2.01233 10.4107 1.49789 9.69828 1.16102 9.16325C0.992288 8.89526 0.867247 8.6704 0.783354 8.51024C0.741385 8.43012 0.709646 8.36606 0.687826 8.32074C0.676914 8.29808 0.668476 8.28009 0.662473 8.26711L0.655288 8.25142L0.653055 8.24647L0.652276 8.24473C0.652147 8.24444 0.651722 8.24349 1.20001 7.99981C0.651489 7.75665 0.651575 7.75646 0.651666 7.75625L0.652378 7.75465L0.653752 7.75159L0.657955 7.74232L0.672236 7.71152C0.684382 7.68568 0.70181 7.64937 0.724645 7.60365C0.770299 7.51225 0.83766 7.38304 0.92773 7.22454C1.10769 6.90786 1.37939 6.47235 1.75114 5.98689C2.49266 5.01858 3.64571 3.83415 5.27958 3.00921C5.57539 2.85985 5.93626 2.97858 6.08561 3.27438ZM1.20001 7.99981L0.651666 7.75625C0.582945 7.91127 0.582853 8.08854 0.651722 8.24349L1.20001 7.99981ZM1.74811 8.2439C1.74802 8.24411 1.74805 8.24404 1.74811 8.2439V8.2439Z" fill="#A0ADBA"/>
<path fill-rule="evenodd" clip-rule="evenodd" d="M7.94845 2.13554C8.4944 2.04415 9.04706 1.99875 9.6006 1.99981C12.7998 1.99999 15.0441 3.44534 16.4743 4.87554C17.1877 5.58896 17.7021 6.30134 18.039 6.83637C18.2077 7.10436 18.3328 7.32921 18.4167 7.48937C18.4586 7.5695 18.4904 7.63356 18.5122 7.67887C18.5231 7.70154 18.5315 7.71953 18.5375 7.73251L18.5447 7.74819L18.547 7.75314L18.5477 7.75488C18.5479 7.75517 18.5483 7.75613 18 7.99981C18.5483 8.24349 18.5482 8.24363 18.5482 8.24378L18.5468 8.24686L18.5442 8.25259L18.5358 8.27095C18.5287 8.28621 18.5187 8.30745 18.5057 8.33421C18.4797 8.38773 18.4418 8.46344 18.3916 8.55781C18.2911 8.74643 18.141 9.0103 17.9378 9.32099C17.5323 9.94109 16.9108 10.7551 16.045 11.5295C15.798 11.7504 15.4187 11.7293 15.1978 11.4823C14.9769 11.2353 14.998 10.856 15.245 10.6351C16.0142 9.94702 16.5702 9.21978 16.9335 8.66425C17.1124 8.39058 17.2434 8.16041 17.3291 7.99982C17.2586 7.8676 17.1572 7.68805 17.0235 7.47575C16.7229 6.99828 16.2623 6.36066 15.6257 5.72407C14.356 4.45437 12.4005 3.19981 9.60001 3.19981C9.11344 3.19885 8.62646 3.23874 8.14657 3.31908C7.81974 3.37378 7.51045 3.15319 7.45574 2.82637C7.40103 2.49954 7.62163 2.19025 7.94845 2.13554ZM18 7.99981L18.5482 8.24378C18.6171 8.08864 18.6172 7.91126 18.5483 7.75613L18 7.99981Z" fill="#A0ADBA"/>
<path fill-rule="evenodd" clip-rule="evenodd" d="M9.573 4.94061C9.63469 4.61503 9.94863 4.40111 10.2742 4.4628C11.0401 4.60792 11.738 4.99822 12.2626 5.5748C12.7872 6.15139 13.1101 6.88296 13.1824 7.65913C13.2132 7.98907 12.9706 8.28147 12.6407 8.31222C12.3107 8.34297 12.0183 8.10043 11.9876 7.77049C11.9394 7.25358 11.7244 6.76637 11.375 6.38238C11.0257 5.99839 10.5609 5.73846 10.0508 5.64182C9.72523 5.58013 9.51131 5.26619 9.573 4.94061Z" fill="#A0ADBA"/>
</svg>
