<svg width="19" height="16" viewBox="0 0 16 10" fill="none" xmlns="http://www.w3.org/2000/svg">
<path fill-rule="evenodd" clip-rule="evenodd" d="M1.77134 2.39645C2.96326 1.20453 4.83361 0 7.4999 0C10.1662 0 12.0365 1.20453 13.2284 2.39645C13.823 2.99096 14.2517 3.58461 14.5324 4.03047C14.673 4.25379 14.7772 4.44117 14.8471 4.57464C14.8821 4.64141 14.9085 4.69479 14.9267 4.73255C14.9358 4.75144 14.9428 4.76643 14.9478 4.77725L14.9538 4.79032L14.9557 4.79445L14.9563 4.7959C14.9564 4.79614 14.9568 4.79693 14.4999 5C14.9568 5.20307 14.9567 5.20329 14.9566 5.20354L14.9557 5.20555L14.9538 5.20968L14.9478 5.22275C14.9428 5.23357 14.9358 5.24856 14.9267 5.26745C14.9085 5.30521 14.8821 5.35859 14.8471 5.42536C14.7772 5.55883 14.673 5.74621 14.5324 5.96953C14.2517 6.41539 13.823 7.00904 13.2284 7.60355C12.0365 8.79547 10.1662 10 7.4999 10C4.83361 10 2.96326 8.79547 1.77134 7.60355C1.17683 7.00904 0.748133 6.41539 0.467405 5.96953C0.326796 5.74621 0.222595 5.55883 0.152684 5.42536C0.11771 5.35859 0.0912608 5.30521 0.0730772 5.26745C0.0639837 5.24856 0.0569519 5.23357 0.0519496 5.22275L0.0459621 5.20968L0.044101 5.20555L0.0434522 5.2041C0.0433447 5.20386 0.0429907 5.20307 0.499896 5C0.0429907 4.79693 0.0430905 4.79671 0.043198 4.79646L0.044101 4.79445L0.0459621 4.79032L0.0519496 4.77725C0.0569519 4.76643 0.0639837 4.75144 0.0730772 4.73255C0.0912608 4.69479 0.11771 4.64141 0.152684 4.57464C0.222595 4.44117 0.326796 4.25379 0.467405 4.03047C0.748133 3.58461 1.17683 2.99096 1.77134 2.39645ZM0.499896 5L0.043198 4.79646C-0.0142609 4.92575 -0.0144683 5.07379 0.0429907 5.20307L0.499896 5ZM1.05895 5C1.11778 5.11018 1.20225 5.25981 1.31364 5.43672C1.56416 5.83461 1.94796 6.36596 2.47845 6.89645C3.53654 7.95453 5.16619 9 7.4999 9C9.83361 9 11.4633 7.95453 12.5213 6.89645C13.0518 6.36596 13.4356 5.83461 13.6862 5.43672C13.7975 5.25981 13.882 5.11018 13.9408 5C13.882 4.88982 13.7975 4.74019 13.6862 4.56328C13.4356 4.16539 13.0518 3.63404 12.5213 3.10355C11.4633 2.04547 9.83361 1 7.4999 1C5.16619 1 3.53654 2.04547 2.47845 3.10355C1.94796 3.63404 1.56416 4.16539 1.31364 4.56328C1.20225 4.74019 1.11778 4.88982 1.05895 5ZM14.4999 5L14.9566 5.20354C15.0141 5.07425 15.0143 4.92621 14.9568 4.79693L14.4999 5Z" fill="#A0ADBA"/>
<path fill-rule="evenodd" clip-rule="evenodd" d="M7.4999 3C6.39533 3 5.4999 3.89543 5.4999 5C5.4999 6.10457 6.39533 7 7.4999 7C8.60447 7 9.4999 6.10457 9.4999 5C9.4999 3.89543 8.60447 3 7.4999 3ZM4.4999 5C4.4999 3.34315 5.84304 2 7.4999 2C9.15675 2 10.4999 3.34315 10.4999 5C10.4999 6.65685 9.15675 8 7.4999 8C5.84304 8 4.4999 6.65685 4.4999 5Z" fill="#A0ADBA"/>
</svg>
